<svg xmlns="http://www.w3.org/2000/svg" viewBox="0 0 512 512" id="flower-vase">
  <g>
    <g>
      <path fill="#fdc75b" d="M348.71,85.39c8.11,6.38,11.7,16.65,8.1,25.58a20.276,20.276,0,0,1-11.08,11.01,25.54,25.54,0,0,1-12.49,1.81c1.23,10.24-3.5,20.04-12.36,23.81s-19.2.38-25.73-7.61a25.424,25.424,0,0,1-9.96,7.74,20.246,20.246,0,0,1-15.62.35c-8.93-3.6-13.84-13.3-12.81-23.57-10.24,1.23-20.04-3.5-23.81-12.36s-.38-19.2,7.61-25.73c-8.11-6.37-11.7-16.64-8.1-25.57S245.77,47,256.03,48.04c-1.22-10.25,3.5-20.05,12.36-23.82s19.2-.38,25.73,7.61c6.37-8.11,16.65-11.7,25.58-8.1s13.84,13.31,12.81,23.58c10.24-1.23,20.04,3.5,23.81,12.36S356.7,78.87,348.71,85.39Zm-45.14,21.52a22.582,22.582,0,1,0-29.62-11.94A22.582,22.582,0,0,0,303.57,106.91Z"></path>
      <polygon fill="#fdc75b" points="298.26 450.87 333.03 489.66 178.97 489.66 213.29 451.37 214 452 297 452 298.26 450.87"></polygon>
      <path fill="#ed664c" d="M315.51,77.29a22.582,22.582,0,1,1-29.62-11.94A22.582,22.582,0,0,1,315.51,77.29Z"></path>
      <polygon fill="#ed664c" points="268.17 242.27 315.43 242.27 297.82 450.38 298.26 450.87 297 452 214 452 213.29 451.37 214.18 450.38 196.57 242.27 268.17 242.27"></polygon>
      <path fill="#fdc75b" d="M237.11,143.37a15.47,15.47,0,0,1-.9,11.93,19.548,19.548,0,0,1-6.33,7.32c5.85,5.31,8.03,13.36,4.79,19.99s-10.93,9.85-18.72,8.5a19.519,19.519,0,0,1-1.89,9.49,15.563,15.563,0,0,1-8.87,8.04c-6.98,2.39-14.69-.77-19.25-7.23-5.31,5.85-13.36,8.03-19.99,4.78s-9.86-10.93-8.5-18.72c-7.9.38-15.13-3.77-17.53-10.75s.77-14.7,7.23-19.25c-5.85-5.32-8.03-13.37-4.79-20s10.94-9.85,18.73-8.5c-.38-7.89,3.77-15.13,10.75-17.52s14.7.76,19.25,7.23c5.32-5.85,13.37-8.03,20-4.79s9.85,10.93,8.5,18.72C227.48,132.23,234.72,136.39,237.11,143.37Zm-32.88,24.36a17.31,17.31,0,1,0-23.15,7.94A17.316,17.316,0,0,0,204.23,167.73Z"></path>
      <path fill="#ed664c" d="M196.28,144.57a17.308,17.308,0,1,1-23.15,7.95A17.316,17.316,0,0,1,196.28,144.57Z"></path>
    </g>
    <g>
      <path d="M214.51,151.257a27.3,27.3,0,1,0-1.3,20.866A27.134,27.134,0,0,0,214.51,151.257Zm-19.261,12.076a7.313,7.313,0,0,1-9.772,3.355l0,0a7.3,7.3,0,1,1,9.777-3.353Z"></path>
      <path d="M365.521,55.754c-4.115-9.67-12.97-16.248-23.534-18.106-2.059-10.531-8.805-19.265-18.548-23.193S302.773,12.138,293.99,18.3c-8.9-5.988-19.85-7.39-29.516-3.277s-16.237,12.97-18.1,23.538c-10.527,2.055-19.259,8.8-23.189,18.554s-2.318,20.657,3.84,29.44a31.614,31.614,0,0,0-5.221,22.777,24.848,24.848,0,0,0-6.324-4.422,25.868,25.868,0,0,0-23.568.641,25.444,25.444,0,0,0-39.535,13.564,25.431,25.431,0,0,0-18.357,37.543,25.43,25.43,0,0,0,13.562,39.525,25.452,25.452,0,0,0,37.55,18.361,26.659,26.659,0,0,0,15.227,4.9,24.937,24.937,0,0,0,8.085-1.346,25.276,25.276,0,0,0,10.5-7.146A157.034,157.034,0,0,1,231.422,232H196.57a10.221,10.221,0,0,0-9.965,11.046l17.247,203.838-32.329,36.085a10.3,10.3,0,0,0-1.684,10.93,10.167,10.167,0,0,0,9.131,6.1H333.03a10.194,10.194,0,0,0,7.447-16.93l-32.329-36.107L325.4,243.135a10.336,10.336,0,0,0-2.6-7.756A10.142,10.142,0,0,0,315.43,232H285.265c10.831-22,17.459-47.347,19.281-74.252a29.924,29.924,0,0,0,20.249-1.014c9.676-4.117,16.258-12.95,18.11-23.523a34.269,34.269,0,0,0,6.751-2.051A30.228,30.228,0,0,0,366.084,114.7c3.928-9.74,2.316-20.651-3.84-29.439C368.234,76.366,369.637,65.427,365.521,55.754ZM205.083,196.2a5.683,5.683,0,0,1-3.132,2.984c-2.535.867-5.76-.586-7.842-3.536a10,10,0,0,0-7.557-4.214c-.2-.012-.409-.019-.613-.019a10,10,0,0,0-7.4,3.279c-2.417,2.662-5.783,3.7-8.2,2.516s-3.657-4.472-3.039-8.015a10,10,0,0,0-10.331-11.708c-3.585.177-6.721-1.477-7.59-4s.582-5.759,3.528-7.834a10,10,0,0,0,.97-15.574c-2.669-2.426-3.71-5.8-2.539-8.2s4.49-3.664,8.043-3.049a10,10,0,0,0,11.7-10.334c-.173-3.6,1.472-6.712,4.014-7.582s5.746.579,7.818,3.525a10,10,0,0,0,15.578.976c2.427-2.667,5.8-3.712,8.212-2.533s3.653,4.476,3.037,8.027a10,10,0,0,0,10.334,11.7c3.6-.173,6.711,1.477,7.583,4.027a5.615,5.615,0,0,1-.426,4.28,9.546,9.546,0,0,1-3.11,3.542,10,10,0,0,0-.959,15.578c2.664,2.418,3.7,5.787,2.526,8.195s-4.475,3.654-8.027,3.037a10,10,0,0,0-11.7,10.322A9.53,9.53,0,0,1,205.083,196.2ZM310.637,480H201.362l15.831-18h77.614Zm-22.144-38H223.507L207.452,252h57.285c1.014,1,2.061.5,3.1.5s2.085.5,3.08-.5h33.627ZM253.256,232a160.248,160.248,0,0,0-19.39-34.572,24.89,24.89,0,0,0,9.788-10.5A25.793,25.793,0,0,0,243,163.381a28,28,0,0,0,2.189-3.7,25.412,25.412,0,0,0,1.379-19.555,24.855,24.855,0,0,0-3.805-7.082,34.22,34.22,0,0,0,4.518,1.129c2.06,10.527,8.8,19.256,18.534,23.179a29.252,29.252,0,0,0,10.994,2.131,30.97,30.97,0,0,0,7.622-1.106C282.322,185.732,274.78,211,262.567,232Zm94.277-124.766a10.348,10.348,0,0,1-5.709,5.54,15.524,15.524,0,0,1-7.592,1.065,10,10,0,0,0-10.92,11.143c.732,6.1-1.819,11.49-6.347,13.416s-10.182.023-14.071-4.735a10,10,0,0,0-15.609.151,15.4,15.4,0,0,1-6,4.709,10.347,10.347,0,0,1-7.977.282c-4.561-1.838-7.213-7.182-6.6-13.3a10,10,0,0,0-11.143-10.926c-6.1.734-11.488-1.818-13.415-6.347s-.023-10.181,4.736-14.071a10,10,0,0,0-.151-15.607c-4.83-3.794-6.841-9.407-5-13.967s7.179-7.218,13.286-6.6A10,10,0,0,0,265.96,46.858c-.728-6.112,1.822-11.512,6.345-13.436s10.181.062,14.072,4.821A10.082,10.082,0,0,0,294.12,42h.1a10,10,0,0,0,7.767-3.907c3.8-4.833,9.413-6.884,13.977-5.046s7.213,7.166,6.6,13.286A9.992,9.992,0,0,0,333.7,57.244c6.1-.731,11.489,1.815,13.416,6.344s.026,10.175-4.73,14.055a10,10,0,0,0,.139,15.607C347.361,97.053,349.374,102.671,347.533,107.234Z"></path>
      <path d="M306.9,55.9a32.587,32.587,0,1,0,17.811,17.475A32.341,32.341,0,0,0,306.9,55.9Zm-.5,34.931a12.587,12.587,0,1,1-.091-9.629A12.485,12.485,0,0,1,306.4,90.834Z"></path>
    </g>
  </g>
</svg>
