<svg xmlns="http://www.w3.org/2000/svg" viewBox="0 0 64 64" id="garage">
  <circle cx="40" cy="31" r="23" fill="#fcf2ed"></circle>
  <circle cx="54" cy="10" r="1" fill="#4c241d"></circle>
  <path fill="#fff" stroke="#4c241d" stroke-linecap="round" stroke-linejoin="round" stroke-width="2" d="M50.019 59H11V30.66L31 14l19.019 16.66V59z"></path>
  <path fill="#e66353" stroke="#4c241d" stroke-linecap="round" stroke-linejoin="round" stroke-width="2" d="M31 15 11.923 31.675A2.971 2.971 0 0 1 7 29.434h0L31 9l24 20.434v.185a2.972 2.972 0 0 1-4.874 2.281Z"></path>
  <path fill="none" stroke="#4c241d" stroke-linecap="round" stroke-linejoin="round" stroke-width="2" d="M11 7v3M11 14v3M9 12H6M16 12h-3M47 59h11"></path>
  <path fill="#6b4f5b" stroke="#4c241d" stroke-linecap="round" stroke-linejoin="round" stroke-width="2" d="M16 48h29v11H16z"></path>
  <path fill="#edebdc" stroke="#4c241d" stroke-linecap="round" stroke-linejoin="round" stroke-width="2" d="M16 36h29v12H16z"></path>
  <path fill="none" stroke="#4c241d" stroke-linejoin="round" stroke-width="2" d="M16 39h29M16 42h29M16 45h29"></path>
  <path fill="none" stroke="#4c241d" stroke-linecap="round" stroke-linejoin="round" stroke-width="2" d="M16 48h29"></path>
  <circle cx="31" cy="27" r="3" fill="#6b4f5b" stroke="#4c241d" stroke-linecap="round" stroke-linejoin="round" stroke-width="2"></circle>
  <path fill="none" stroke="#ffce56" stroke-linecap="round" stroke-linejoin="round" stroke-width="2" d="M23 53h3M35 53h3"></path>
</svg>
