<svg xmlns="http://www.w3.org/2000/svg" viewBox="0 0 100 100" id="lamp">
  <path fill="#fff" d="M48.627 90.23c-.59.59-1.362.88-2.134.88-.76 0-1.531-.29-2.122-.88L9.567 55.425a3.032 3.032 0 0 1-.892-2.133c0-.796.325-1.568.892-2.134l34.575-34.576a3.012 3.012 0 1 1 4.268 4.256L15.956 53.292l32.671 32.67a3.012 3.012 0 0 1 0 4.268z"></path>
  <circle cx="13.372" cy="53.292" r="10.305" fill="#72dbd4"></circle>
  <path fill="#6cc6c6" d="M23.68 53.292c0 5.687-4.629 10.303-10.303 10.303-.754 0-1.481-.08-2.195-.238 4.629-1.005 8.107-5.132 8.107-10.065 0-4.934-3.478-9.06-8.107-10.066a10.057 10.057 0 0 1 2.195-.238c5.674 0 10.303 4.616 10.303 10.304z"></path>
  <path fill="#c7f1ed" d="M14.911 63.476a9.866 9.866 0 0 1-1.534.119c-5.714 0-10.316-4.616-10.316-10.303s4.602-10.304 10.316-10.304c.516 0 1.032.04 1.534.12A10.29 10.29 0 0 0 6.13 53.291a10.29 10.29 0 0 0 8.782 10.184z"></path>
  <path fill="#fff" d="M13.371 58.306c-2.765 0-5.014-2.25-5.014-5.014s2.249-5.015 5.014-5.015 5.016 2.25 5.016 5.015-2.25 5.014-5.016 5.014z"></path>
  <path fill="#fb9648" d="M65.515 14.292 54.643 25.164 44.029 14.55a2.379 2.379 0 0 1 0-3.364l7.508-7.508c.929-.929 2.435-.929 3.364 0l10.614 10.614z"></path>
  <path fill="#fff" d="M78.256 37.905a7.14 7.14 0 0 1-10.098 0l-1.913-1.913 10.098-10.098 1.913 1.913a7.14 7.14 0 0 1 0 10.098z"></path>
  <path fill="#d8eaf8" d="M78.26 37.909a7.114 7.114 0 0 1-6.498 1.928 7.197 7.197 0 0 0 1.856-1.326c2.76-2.76 2.797-7.209.097-9.994l2.628-2.628 1.916 1.917c2.785 2.785 2.785 7.306 0 10.103z"></path>
  <path fill="#f26c6d" d="M75.067 96.065v.917H23.68v-.917a9.644 9.644 0 0 1 9.645-9.644h32.098a9.644 9.644 0 0 1 9.644 9.644z"></path>
  <path fill="#ef425e" d="M75.07 96.065v.917H64.74v-.917a9.642 9.642 0 0 0-9.645-9.644h10.332a9.642 9.642 0 0 1 9.644 9.644z"></path>
  <path fill="#f79094" d="M39.048 86.42a9.642 9.642 0 0 0-9.644 9.645v.917h-5.727v-.917a9.642 9.642 0 0 1 9.645-9.644h5.726z"></path>
  <path fill="#f7c737" d="m85.433 15.27.769.768L56.389 45.85l-.769-.768c-8.233-8.233-8.233-21.58 0-29.814 8.233-8.232 21.58-8.232 29.813 0z"></path>
  <path fill="#ffe268" d="m86.204 16.04-.566.566a20.939 20.939 0 0 0-10.296-2.688 21.024 21.024 0 0 0-14.9 6.172c-6.824 6.824-7.993 17.18-3.485 25.197l-.566.566-.772-.771c-8.234-8.234-8.234-21.58 0-29.814a21.03 21.03 0 0 1 14.913-6.172 21.044 21.044 0 0 1 14.9 6.172l.772.772z"></path>
  <path fill="#f7c737" d="M62.986 84.366v2.051h-8.624v-2.051a4.312 4.312 0 0 1 8.624 0z"></path>
  <g fill="#215">
    <path d="M13.373 47.775c-3.04 0-5.52 2.48-5.52 5.52s2.48 5.51 5.52 5.51a5.514 5.514 0 0 0 0-11.03zm0 10.03c-2.49 0-4.52-2.02-4.52-4.51s2.03-4.52 4.52-4.52c2.49 0 4.51 2.03 4.51 4.52s-2.02 4.51-4.51 4.51zm69.4-15.37a.75.75 0 0 0 0 1.06l9.453 9.455a.747.747 0 0 0 1.06 0 .75.75 0 0 0 0-1.061l-9.452-9.454a.75.75 0 0 0-1.06 0zm4.847-6.22 8.432 2.259a.75.75 0 1 0 .389-1.45l-8.432-2.258a.75.75 0 0 0-.39 1.449zM75.465 46.459a.75.75 0 0 0-.53.919l2.26 8.432a.75.75 0 0 0 1.448-.389l-2.26-8.432a.749.749 0 0 0-.918-.53zm21.472 49.523h-3.916a1 1 0 1 0 0 2h3.916a1 1 0 1 0 0-2z"></path>
    <path d="M86.673 95.985h-10.61c-.05-5.83-4.8-10.56-10.64-10.56h-1.44v-1.06c0-2.93-2.38-5.31-5.31-5.31s-5.31 2.38-5.31 5.31v1.06h-3.89c-.05-.06-.09-.12-.14-.17l-26.23-26.23c.99-1.69 1.57-3.64 1.57-5.73s-.58-4.05-1.57-5.73l26.01-26.02c.08-.08.15-.18.23-.27l.69.7c-3.17 7.95-1.55 17.39 4.88 23.81l.77.77a.976.976 0 0 0 1.41 0l9.15-9.15 1.21 1.21a8.149 8.149 0 0 0 11.51 0c3.17-3.18 3.17-8.34 0-11.52l-1.2-1.2 9.15-9.15a.996.996 0 0 0 0-1.41l-.77-.77a21.951 21.951 0 0 0-15.62-6.47c-2.86 0-5.63.55-8.21 1.58l-6.7-6.7c-1.28-1.28-3.51-1.28-4.78 0l-7.51 7.5a3.38 3.38 0 0 0 0 4.78l.39.39c-.1.07-.19.14-.28.23l-26.64 26.64c-1.08-.34-2.23-.53-3.42-.53-6.24 0-11.31 5.07-11.31 11.31 0 6.23 5.07 11.3 11.31 11.3 1.19 0 2.34-.19 3.42-.53l21.36 21.36h-4.83c-5.84 0-10.59 4.73-10.64 10.56H3.293c-.56 0-1 .44-1 1 0 .55.44 1 1 1h83.38c.56 0 1-.45 1-1 0-.56-.44-1-1-1zm-31.31-11.62c0-1.83 1.48-3.31 3.31-3.31s3.31 1.48 3.31 3.31v1.05h-6.62v-1.05zm22.19-47.17c-2.4 2.4-6.29 2.4-8.69 0l-1.2-1.2 8.68-8.69 1.21 1.21c2.39 2.39 2.39 6.29 0 8.68zm-7.03-27.1c5.37 0 10.41 2.09 14.2 5.88l.07.06-9.15 9.15h-.01l-10.09 10.1c-.01 0-.01.01-.01.01l-9.14 9.14-.07-.06c-7.82-7.83-7.82-20.57 0-28.4 3.8-3.79 8.84-5.88 14.2-5.88zm-25.79 1.8 7.51-7.51c.26-.26.61-.4.98-.4s.71.14.97.4l6.18 6.18a22.045 22.045 0 0 0-5.46 4c-1.65 1.65-2.98 3.5-3.99 5.47l-6.19-6.19c-.53-.54-.53-1.41 0-1.95zm.12 5.39c.08-.08.18-.16.27-.23l2.8 2.81c-.06.09-.14.19-.22.27l-25.78 25.78c-.89-1.03-1.95-1.9-3.15-2.55l26.08-26.08zm-31.48 45.31c-5.13 0-9.31-4.17-9.31-9.3s4.18-9.31 9.31-9.31c5.13 0 9.3 4.18 9.3 9.31s-4.17 9.3-9.3 9.3zm5.4.62c1.2-.65 2.26-1.52 3.15-2.55l24.76 24.76h-5.7l-22.21-22.21zm5.91 32.77c.04-4.73 3.9-8.56 8.64-8.56h32.1c4.74 0 8.6 3.83 8.64 8.56h-49.38z"></path>
  </g>
</svg>
