<svg xmlns="http://www.w3.org/2000/svg" fill-rule="evenodd" stroke-linejoin="round" stroke-miterlimit="2" clip-rule="evenodd" viewBox="0 0 64 64" id="shipping-box">
  <g>
    <path d="M6,3L58,3C59.657,3 61,4.343 61,6L61,58C61,59.657 59.657,61 58,61L6,61C4.343,61 3,59.657 3,58L3,6C3,4.343 4.343,3 6,3ZM22,5L6,5C5.448,5 5,5.448 5,6L5,58C5,58.552 5.448,59 6,59L58,59C58.552,59 59,58.552 59,58L59,6C59,5.448 58.552,5 58,5L42,5L42,23.333C42,24.071 41.594,24.749 40.944,25.097C40.293,25.445 39.504,25.407 38.891,24.997L38,24.404L36.109,25.664C35.438,26.112 34.562,26.112 33.891,25.664L32,24.404L30.109,25.664C29.438,26.112 28.562,26.112 27.891,25.664L26,24.404L25.109,24.997C24.496,25.407 23.707,25.445 23.056,25.097C22.406,24.749 22,24.071 22,23.333L22,5ZM56,40L56,53C56,54.105 55.105,55 54,55L35,55C33.895,55 33,54.105 33,53L33,40C33,38.895 33.895,38 35,38L54,38C55.105,38 56,38.895 56,40ZM35,53L54,53L54,40L35,40L35,53ZM38,50C37.448,50 37,49.552 37,49C37,48.448 37.448,48 38,48L51,48C51.552,48 52,48.448 52,49C52,49.552 51.552,50 51,50L38,50ZM38,45C37.448,45 37,44.552 37,44C37,43.448 37.448,43 38,43L51,43C51.552,43 52,43.448 52,44C52,44.552 51.552,45 51,45L38,45Z"></path>
  </g>
</svg>
