<svg xmlns="http://www.w3.org/2000/svg" viewBox="0 0 66 62.88" id="sun">
  <path fill="#fdb51e" d="M57.73 23.4 65 31.44l-7.27 8.04 1.16 10.77-10.61 2.23-5.39 9.4L33 57.44l-9.89 4.44-5.39-9.4-10.61-2.23 1.16-10.77L1 31.44l7.27-8.04-1.16-10.77 10.61-2.23L23.11 1 33 5.44 42.89 1l5.39 9.4 10.61 2.23-1.16 10.77zM54 31.44c0-11.6-9.4-21-21-21s-21 9.4-21 21 9.4 21 21 21 21-9.4 21-21z"></path>
  <circle cx="33" cy="31.44" r="21" fill="#ffd311"></circle>
  <circle cx="33" cy="31.44" r="16" fill="#fcc418"></circle>
  <g fill="none" stroke="#000" stroke-linejoin="round" stroke-miterlimit="10" stroke-width="2">
    <circle cx="33" cy="31.44" r="21"></circle>
    <path d="m65 31.44-7.27 8.04 1.16 10.77-10.61 2.23-5.39 9.4L33 57.44l-9.89 4.44-5.39-9.4-10.61-2.23 1.16-10.77L1 31.44l7.27-8.04-1.16-10.77 10.61-2.23L23.11 1 33 5.44 42.89 1l5.39 9.4 10.61 2.23-1.16 10.77z"></path>
    <path d="M20 30.44c0-7.18 5.82-13 13-13"></path>
  </g>
</svg>
